<svg width="33" height="33" viewBox="0 0 33 33" fill="none" xmlns="http://www.w3.org/2000/svg">
<path d="M19.5551 4.8856C19.5894 4.75451 19.6495 4.63158 19.7319 4.52402C19.8143 4.41646 19.9174 4.32643 20.035 4.2592C20.1527 4.19197 20.2826 4.1489 20.4171 4.1325C20.5516 4.11611 20.688 4.12672 20.8184 4.16373C22.7408 4.67932 24.4937 5.69163 25.901 7.09901C27.3084 8.5064 28.3207 10.2593 28.8363 12.1817C28.8733 12.3121 28.8839 12.4485 28.8676 12.583C28.8512 12.7175 28.8081 12.8474 28.7409 12.965C28.6736 13.0827 28.5836 13.1857 28.476 13.2681C28.3685 13.3506 28.2455 13.4107 28.1145 13.445C28.0265 13.4705 27.9353 13.4835 27.8438 13.4836C27.6161 13.4823 27.3954 13.4058 27.2158 13.2659C27.0363 13.126 26.9081 12.9306 26.8512 12.7102C26.4223 11.1405 25.5916 9.70973 24.441 8.5591C23.2903 7.40847 21.8596 6.57774 20.2898 6.14888C20.1576 6.116 20.0333 6.0569 19.9243 5.97509C19.8153 5.89328 19.7238 5.79043 19.6553 5.67263C19.5868 5.55482 19.5426 5.42447 19.5254 5.28928C19.5082 5.15409 19.5183 5.01682 19.5551 4.8856ZM19.2199 10.1321C20.0925 10.3709 20.8877 10.8329 21.5274 11.4726C22.1671 12.1123 22.6291 12.9076 22.868 13.7801C22.9228 14.0016 23.0505 14.1983 23.2305 14.3385C23.4105 14.4788 23.6324 14.5545 23.8605 14.5536C23.948 14.5544 24.035 14.5414 24.1184 14.5149C24.2506 14.482 24.3749 14.4229 24.4839 14.3411C24.5929 14.2593 24.6844 14.1564 24.7529 14.0386C24.8214 13.9208 24.8656 13.7905 24.8828 13.6553C24.9 13.5201 24.8899 13.3828 24.8531 13.2516C24.5276 12.0264 23.884 10.9089 22.9876 10.0125C22.0911 9.11607 20.9737 8.47248 19.7484 8.14693C19.6139 8.09792 19.4707 8.07747 19.3278 8.08685C19.185 8.09624 19.0456 8.13527 18.9187 8.20146C18.7917 8.26765 18.6799 8.35955 18.5905 8.47131C18.501 8.58306 18.4357 8.71222 18.3989 8.85057C18.3621 8.98892 18.3544 9.13342 18.3765 9.27488C18.3986 9.41633 18.4499 9.55164 18.5271 9.67219C18.6043 9.79274 18.7058 9.89589 18.8251 9.97507C18.9444 10.0542 19.0788 10.1077 19.2199 10.1321ZM29.8547 22.5715C29.6266 24.3123 28.7742 25.911 27.4559 27.0705C26.1376 28.2299 24.4431 28.8712 22.6875 28.8751C12.4523 28.8751 4.125 20.5477 4.125 10.3126C4.12887 8.55693 4.77014 6.86244 5.92959 5.54413C7.08903 4.22582 8.68776 3.37341 10.4285 3.14537C10.8723 3.09617 11.3202 3.18959 11.7072 3.41211C12.0943 3.63462 12.4004 3.97464 12.5813 4.38287L15.1723 10.4286C15.3067 10.7424 15.3606 11.0848 15.329 11.4247C15.2975 11.7646 15.1816 12.0913 14.9918 12.3751L12.852 15.6493C13.8209 17.6157 15.4175 19.2032 17.3895 20.161L20.625 18.0083C20.9085 17.8172 21.2359 17.7015 21.5765 17.6722C21.9171 17.6429 22.2595 17.7009 22.5715 17.8407L28.6172 20.4188C29.0254 20.5996 29.3654 20.9057 29.5879 21.2928C29.8105 21.6799 29.9039 22.1278 29.8547 22.5715ZM27.8051 22.3137L21.7594 19.7356L18.5367 21.8883C18.2402 22.0844 17.898 22.2004 17.5434 22.2253C17.1889 22.2501 16.8339 22.1829 16.5129 22.0301C14.1113 20.8684 12.1687 18.9349 10.9957 16.5387C10.8411 16.2189 10.7717 15.8645 10.7942 15.5099C10.8168 15.1553 10.9306 14.8126 11.1246 14.5149L13.2773 11.2407L10.6863 5.19498C9.44232 5.35489 8.29925 5.96276 7.47114 6.90476C6.64303 7.84677 6.18667 9.05831 6.1875 10.3126C6.19091 14.6876 7.9304 18.8824 11.024 21.976C14.1176 25.0697 18.3125 26.8091 22.6875 26.8126C23.9417 26.8134 25.1533 26.357 26.0953 25.5289C27.0373 24.7008 27.6452 23.5577 27.8051 22.3137Z" fill="white"/>
</svg>
